<?xml version="1.0" encoding="UTF-8"?>
<!-- Created with Inkscape (http://www.inkscape.org/) -->
<svg width="203.56mm" height="123.42mm" version="1.1" viewBox="0 0 203.5614 123.42413" xmlns="http://www.w3.org/2000/svg" xmlns:cc="http://creativecommons.org/ns#" xmlns:dc="http://purl.org/dc/elements/1.1/" xmlns:rdf="http://www.w3.org/1999/02/22-rdf-syntax-ns#">
 <metadata>
  <rdf:RDF>
   <cc:Work rdf:about="">
    <dc:format>image/svg+xml</dc:format>
    <dc:type rdf:resource="http://purl.org/dc/dcmitype/StillImage"/>
    <dc:title/>
   </cc:Work>
  </rdf:RDF>
 </metadata>
 <g transform="translate(-3.3522 -170.78)">
  <path d="m91.303 293.74c-6.1678-1.9276-9.4763-7.6043-7.8822-13.524 1.0802-4.0115 5.7843-6.1526 9.8163-4.468 2.6845 1.1216 3.9578 3.0123 4.0362 5.9934 0.07969 3.0288-1.3714 4.5031-3.826 3.8871-1.2251-0.30747-1.7566-1.6426-1.1943-3.0001 0.6097-1.472-0.24037-2.8402-1.7646-2.8402-3.0187 0-3.7141 4.7405-1.1436 7.7954 1.8307 2.1756 5.3066 3.0265 7.8996 1.9338 1.6867-0.71081 3.4079-2.5242 3.8266-4.0317 1.4749-5.31-0.74442-10.599-10.828-25.806-7.7714-11.72-8.8923-13.538-10.484-17.004-1.9059-4.149-2.4214-6.489-2.2548-10.235 0.12409-2.7886 0.29844-3.5563 1.1703-5.1532 1.2467-2.2834 2.8753-3.7637 5.4247-4.9309 1.857-0.85016 2.3575-0.89772 14.127-1.3428 6.7111-0.25376 15.298-0.6276 19.081-0.83075 3.7835-0.20315 9.1017-0.38346 11.818-0.40069 6.2916-0.0399 8.1653 0.55698 11.165 3.5567 1.6285 1.6285 2.1296 2.4241 2.7098 4.3025 1.5102 4.8893-0.47324 9.7428-4.4994 11.011-1.0744 0.33831-4.1502 0.58236-9.1989 0.72989-4.1716 0.1219-10.522 0.36744-14.111 0.54564-20.507 1.0181-23.111 1.0185-25.207 4e-3 -1.9944-0.96548-3.3844-2.9096-3.6285-5.0752-0.19234-1.7064 0.35677-3.8062 1.1724-4.4831 0.74704-0.61999 2.566-0.4819 3.3822 0.25677 0.59912 0.54219 0.66332 0.9086 0.46245 2.6393-0.20757 1.7884-0.15468 2.0517 0.48037 2.3916 1.8384 0.98387 3.4508 0.0543 3.8167-2.2004 0.31452-1.9381-0.15904-3.6572-1.3953-5.0653-3.1057-3.5372-8.3323-3.3131-10.96 0.4698-0.89884 1.294-1.015 1.76-0.99398 3.9891 0.04977 5.2888 1.9957 9.3123 11.309 23.383 8.1132 12.257 8.9317 13.605 10.607 17.469 2.2884 5.278 2.6834 10.467 1.0739 14.105-0.3915 0.88504-0.6702 1.6354-0.61934 1.6675 0.0509 0.0321 2.95-0.0569 6.4425-0.19765 3.4925-0.14079 10.874-0.43558 16.404-0.65508 5.5298-0.21951 10.829-0.57281 11.776-0.7851 2.4513-0.54948 4.2441-2.4145 4.8277-5.0222 0.37132-1.6592 0.35244-2.4225-0.1192-4.8164-0.95317-4.8382-3.0278-8.5448-13.363-23.875-5.5987-8.3048-6.1702-9.3708-5.6433-10.527 0.21693-0.4761 0.80841-1.0543 1.3144-1.2848 1.4817-0.67511 2.482 0.20092 5.4149 4.7421 1.4692 2.2749 4.6708 7.1168 7.1145 10.76 7.4357 11.085 9.5307 15.294 10.242 20.576 0.41631 3.0934 0.0383 6.2299-0.99067 8.2197-0.98426 1.9034-3.2603 4.0008-5.3675 4.9465-2.2025 0.98844-3.1381 1.0679-21.203 1.7999-2.8134 0.11401-8.7665 0.35834-13.229 0.54294-10.714 0.44321-15.204 0.39988-17.009-0.1641zm18.773-58.029c3.4925-0.18282 8.5725-0.42237 11.289-0.53236 2.7164-0.10998 7.082-0.28641 9.7014-0.39205 5.9851-0.24139 6.2224-0.29499 6.8728-1.5526 1.0674-2.0641 0.56498-5.0148-1.1626-6.8279-2.1345-2.2402-3.2413-2.4088-13.149-2.0024-18.126 0.74352-25.167 1.0893-25.321 1.2436-0.08889 0.0889 0.08618 0.44041 0.38904 0.78115 1.256 1.4131 1.8001 3.3938 1.7934 6.5286l-7e-3 3.0868 1.6219-2.1e-4c0.89204-1.1e-4 4.4794-0.14977 7.9719-0.33258zm-6.1293 26.405c-0.85078-0.9132-0.97369-2.3475-0.2822-3.2932 0.68251-0.93339 2.8136-1.1664 14.916-1.6306 10.52-0.40353 10.824-0.39633 11.731 0.27802 1.2206 0.90712 1.42 2.6035 0.42314 3.6003-0.53399 0.534-1.2168 0.73721-2.5784 0.76734-1.0186 0.0225-2.6458 0.0784-3.616 0.12419-0.97014 0.0458-4.6214 0.18897-8.1139 0.31824s-7.5604 0.32627-9.0397 0.43778c-2.4828 0.18714-2.7474 0.14081-3.4396-0.60214zm-4.9027-6.3832c-1.3869-0.69302-1.4955-3.4114-0.16455-4.1194 0.86912-0.46236 13.706-1.2947 17.458-1.132 0.95732 0.0415 2.0285 1.3308 2.0285 2.4415 0 1.9661-0.88356 2.2993-6.8158 2.57-2.9453 0.13442-6.7838 0.33349-8.53 0.44238-2.0515 0.12793-3.4586 0.0563-3.9764-0.20248zm-4.1156-7.4638c-1.1148-1.1148-1.1443-2.0281-0.10436-3.2371 0.79724-0.92685 0.82297-0.93079 9.2604-1.4189 10.245-0.59267 16.206-0.64101 17.144-0.13903 0.38459 0.20583 0.84986 0.77037 1.034 1.2546 0.43165 1.1353-0.41918 2.8789-1.5214 3.1177-0.43303 0.0938-5.3911 0.33651-11.018 0.53927-5.6268 0.20276-11.054 0.46284-12.061 0.57796-1.6397 0.18753-1.9243 0.11523-2.734-0.69451zm-90.488-8.6209c-1.3318-1.3318-1.4223-2.814-0.25466-4.1715 0.66809-0.7767 1.2491-1.0097 3.0471-1.2217 2.7394-0.323 4.7214-1.6093 5.8899-3.8225 0.74056-1.4027 0.82083-2.0151 0.82083-6.2618v-4.707h-4.2605c-4.2386 0-4.2658-5e-3 -5.2917-1.0312-1.3864-1.3864-1.3864-2.9012 0-4.2876 1.0259-1.0259 1.0531-1.0312 5.2917-1.0312h4.2605v-30.581l-0.82083-1.5548c-1.1684-2.2132-3.1504-3.4995-5.8899-3.8225-1.798-0.212-2.379-0.44495-3.0471-1.2217-1.1676-1.3574-1.0771-2.8397 0.25466-4.1715 1.0453-1.0453 1.1552-1.0732 3.4047-0.8631 2.6816 0.2504 5.995 1.6616 7.9672 3.3932l1.3062 1.1469 1.3062-1.1469c1.9722-1.7316 5.2857-3.1428 7.9672-3.3932 2.2495-0.21007 2.3594-0.18221 3.4047 0.8631 1.437 1.437 1.4539 2.9316 0.04897 4.3366-0.77834 0.77834-1.3622 1.032-2.3813 1.0346-1.5148 4e-3 -4.5625 1.3053-5.4817 2.3407-1.6385 1.8457-1.6891 2.3988-1.6891 18.458v15.181h4.2605c4.2386 0 4.2658 5e-3 5.2917 1.0312 1.3864 1.3864 1.3864 2.9012 0 4.2876-1.0259 1.0259-1.0531 1.0312-5.2917 1.0312h-4.2605l0.0077 4.6743c0.0063 3.8006 0.13101 4.9458 0.66716 6.1264 1.053 2.3188 3.8578 4.016 6.6368 4.016 0.86613 0 1.5018 0.29258 2.2404 1.0312 1.4049 1.4049 1.388 2.8996-0.04897 4.3366-1.0453 1.0453-1.1552 1.0732-3.4047 0.8631-2.6816-0.25041-5.995-1.6616-7.9672-3.3932l-1.3062-1.1469-1.3062 1.1469c-1.9722 1.7316-5.2857 3.1428-7.9672 3.3932-2.2495 0.21006-2.3594 0.18221-3.4047-0.8631zm36.314 0.52101c-1.7315-0.54576-4.6845-3.6036-5.2154-5.4006-0.97731-3.3078-0.2883-5.9445 2.2049-8.4377 3.5692-3.5692 8.0964-3.5692 11.666 0 3.5692 3.5692 3.5692 8.0964 0 11.666-2.4823 2.4823-5.3716 3.2076-8.655 2.1727zm4.9118-5.391c0.91303-0.76826 1.0854-1.163 1.0854-2.4855 0-2.1775-1.1265-3.304-3.304-3.304-1.3225 0-1.7172 0.17238-2.4855 1.0854-1.2778 1.5186-1.2337 3.2346 0.1179 4.5862 1.3516 1.3516 3.0676 1.3957 4.5862 0.1179zm16.255 5.391c-1.7315-0.54576-4.6845-3.6036-5.2154-5.4006-0.97731-3.3078-0.2883-5.9445 2.2049-8.4377 3.5692-3.5692 8.0964-3.5692 11.666 0 3.5692 3.5692 3.5692 8.0964 0 11.666-2.4823 2.4823-5.3716 3.2076-8.655 2.1727zm3.7694-4.854c2.7542-1.0435 3.4861-3.7114 1.5494-5.6481-1.7355-1.7355-4.4161-1.354-5.5228 0.78601-0.95402 1.8449 0.0028 4.2709 1.9678 4.9892 0.7927 0.28977 0.92776 0.28121 2.0055-0.12714zm85.483 4.7369c-1.4067-0.47544-2.2202-1.0681-2.6759-1.9494-0.40906-0.79104-0.49907-3.8979-0.49907-17.228 0-18.07-0.0169-17.931 2.3052-18.901 1.7861-0.74629 52.517-0.74629 54.304 0 2.3217 0.97005 2.3052 0.83484 2.3052 18.867 0 11.513-0.11831 16.488-0.40715 17.122-0.22393 0.49148-0.81924 1.1736-1.3229 1.5159-0.85249 0.5793-2.7319 0.62679-27.198 0.68717-14.455 0.0357-26.52-0.0156-26.811-0.11399zm5.6586-3.9483c1.753-1.4195-0.39358-3.9916-2.2927-2.7473-1.1262 0.73793-1.1799 2.0964-0.11234 2.8441 1.0119 0.70878 1.431 0.6919 2.405-0.0969zm6.0677 0.20506c1.0992-0.8471 0.92127-2.6373-0.30858-3.1049-1.9174-0.72898-3.3857 1.3854-2.0144 2.9008 0.68069 0.75215 1.5166 0.82562 2.323 0.20416zm6.3258-0.14287c1.527-1.3819-4e-3 -3.7032-1.9531-2.962-1.7291 0.65739-1.089 3.5459 0.78578 3.5459 0.28719 0 0.81247-0.26272 1.1673-0.58384zm6.35 0c0.92557-0.83763 0.8115-2.1131-0.25126-2.8094-1.8991-1.2444-4.0457 1.3278-2.2927 2.7473 0.98849 0.80043 1.7088 0.81804 2.544 0.0622zm6.2896-0.12171c0.38806-0.38806 0.70556-0.94368 0.70556-1.2347 0-0.64613-1.2418-1.9403-1.8618-1.9403-0.82675 0-2.0188 1.089-2.0188 1.8443 0 0.94795 0.97195 2.0362 1.8186 2.0362 0.35798 0 0.96838-0.3175 1.3564-0.70555zm6.0818 0.26458c0.55017-0.42399 0.75169-1.0115 0.66279-1.9321-0.023-0.23807-0.43868-0.69288-0.92375-1.0107-0.81698-0.5353-0.9469-0.5353-1.7639 0-0.60828 0.39856-0.88195 0.89832-0.88195 1.6106 0 1.5347 1.658 2.2947 2.9068 1.3323zm6.3258-0.14287c0.35483-0.32111 0.64514-0.94711 0.64514-1.3911 0-0.80566-1.1653-1.9056-2.0188-1.9056-0.61998 0-1.8618 1.2942-1.8618 1.9403 0 0.71102 1.2675 1.9403 2.0007 1.9403 0.32427 0 0.87989-0.26272 1.2347-0.58384zm6.3037-0.0622c1.753-1.4195-0.39358-3.9916-2.2927-2.7473-1.1262 0.73793-1.1799 2.0964-0.11234 2.8441 1.0119 0.70878 1.431 0.6919 2.405-0.0969zm-43.607-5.5528c0.71394-0.71393 0.70376-1.518-0.0295-2.3283-1.05-1.1603-3.2967-0.4851-3.2967 0.99075 0 1.7273 2.0943 2.5694 3.3262 1.3375zm6.4076-0.32757c0.53531-0.81699 0.53531-0.94691 0-1.7639-0.38677-0.59028-0.90185-0.88195-1.5575-0.88195-1.2254 0-1.8263 0.58038-1.8263 1.7639s0.60092 1.7639 1.8263 1.7639c0.65567 0 1.1708-0.29167 1.5575-0.88194zm6.0706 0.45861c0.23284-0.23284 0.42334-0.83609 0.42334-1.3406 0-1.1835-0.60092-1.7639-1.8263-1.7639-0.65567 0-1.1708 0.29167-1.5575 0.88195-0.53531 0.81698-0.53531 0.9469 0 1.7639 0.62963 0.96093 2.2129 1.2062 2.9605 0.45861zm6.4082-0.25903c0.51222-0.9571 0.45529-1.6466-0.18918-2.291-1.0847-1.0848-3.3262-0.24981-3.3262 1.239 0 1.5944 2.7799 2.4264 3.5154 1.052zm6.07 0.0985c0.80052-0.72446 0.82014-1.4603 0.0613-2.2988-1.1506-1.2714-3.2967-0.45776-3.2967 1.2498 0 1.5902 1.9417 2.2198 3.2354 1.049zm6.4984-0.2981c0.53531-0.81699 0.53531-0.94691 0-1.7639-0.38677-0.59028-0.90185-0.88195-1.5575-0.88195-1.2254 0-1.8263 0.58038-1.8263 1.7639s0.60092 1.7639 1.8263 1.7639c0.65567 0 1.1708-0.29167 1.5575-0.88194zm6.0706 0.45861c0.6001-0.60011 0.52443-1.8946-0.15019-2.5692-0.83145-0.83146-2.3035-0.53658-2.9314 0.5872-0.48241 0.86337-0.4709 1.0098 0.13174 1.6757 0.72812 0.80456 2.2895 0.9667 2.9499 0.30633zm6.219-0.13104c0.71394-0.71393 0.70376-1.518-0.0295-2.3283-0.72607-0.8023-1.8052-0.82725-2.6516-0.0613-1.2256 1.1092-0.41846 2.9439 1.2952 2.9439 0.45735 0 1.081-0.24946 1.3859-0.55437zm-43.732-5.4286c1.3171-1.4554-0.55673-3.7588-2.2991-2.8263-1.6202 0.8671-0.94137 3.5176 0.90088 3.5176 0.42492 0 1.0541-0.31111 1.3982-0.69134zm6.2138-0.0415c0.40305-0.40306 0.64118-0.97167 0.52916-1.2636s-0.20366-0.65103-0.20366-0.79804c0-0.14702-0.41638-0.45701-0.92528-0.68888-1.8712-0.85257-3.5001 1.477-2.0481 2.929 0.76247 0.76247 1.7752 0.69421 2.6479-0.17846zm6.1211 0.17846c0.831-0.831 0.68695-2.1647-0.30392-2.814-0.98259-0.64382-2.0349-0.28688-2.6738 0.90697-0.89962 1.681 1.6018 3.2829 2.9777 1.907zm6.2592-0.0295c0.90125-0.81561 0.81264-2.1124-0.18919-2.7688-1.8178-1.191-3.9448 1.0694-2.5042 2.6613 0.76458 0.84485 1.8316 0.88744 2.6934 0.10749zm6.2896-0.12169c0.38806-0.38806 0.70556-0.85133 0.70556-1.0295 0-1.5508-1.7389-2.4742-3.0462-1.6176-0.97319 0.63766-1.0799 1.791-0.25049 2.7075 0.76073 0.8406 1.7123 0.81841 2.5912-0.0604zm6.0818 0.26458c0.55017-0.42399 0.75169-1.0115 0.66279-1.9322-0.023-0.23806-0.43868-0.69288-0.92375-1.0107-0.81698-0.53531-0.9469-0.53531-1.7639 0-0.60828 0.39856-0.88195 0.89831-0.88195 1.6105 0 1.5347 1.658 2.2947 2.9068 1.3323zm6.3258-0.14287c1.5155-1.3715-0.0966-3.8605-1.8888-2.9162-1.5218 0.80176-1.7292 1.7063-0.64102 2.7945 0.85843 0.85843 1.6725 0.89759 2.5299 0.12171zm6.4756-0.1324c0.506-0.55912 0.57603-0.91823 0.31926-1.6371-0.62516-1.7502-3.0914-1.7089-3.5352 0.0592-0.47315 1.8852 1.889 3.0441 3.2159 1.5779zm-16.224-7.7122c3.701-0.76385 7.0749-2.3449 8.4231-3.9471 1.9732-2.3451 2.5229-2.2647-15.492-2.2647-18.15 0-17.55-0.0946-15.341 2.421 3.2799 3.7356 13.94 5.5389 22.41 3.7909zm18.306-9.0593c0.69338-0.69338 0.69096-0.82664-0.0295-1.6227-0.55505-0.61334-1.8057-0.64513-25.375-0.64513-22.067 0-24.852 0.0609-25.345 0.55436-0.30491 0.3049-0.55437 0.69044-0.55437 0.85675s0.24946 0.55184 0.55437 0.85674c0.49346 0.49346 3.2811 0.55437 25.375 0.55437 22.094 0 24.881-0.0609 25.375-0.55437zm-50.118-9.4523c-0.83231-0.71592-0.99073-1.159-1.1156-3.1198-0.16034-2.5181 0.42998-4.189 1.7248-4.8819 1.5341-0.82102 1.7327-0.31497 1.7327 4.4154 0 4.1434-0.0431 4.4208-0.68589 4.4208-0.37723 0-1.1224-0.37549-1.6559-0.83442zm47.145-3.7517c0-3.9269 0.0794-4.5861 0.55236-4.5861 1.6866 0 2.9754 1.9864 2.9754 4.5861 0 2.5997-1.2888 4.5861-2.9754 4.5861-0.47297 0-0.55236-0.65918-0.55236-4.5861zm-43.244 2.3462c-0.10046-0.26178-0.13517-1.5715-0.0771-2.9104l0.10553-2.4344h41.628l0.1048 2.6148c0.0743 1.8534-0.0284 2.6993-0.35278 2.905-0.25167 0.15964-9.6304 0.29269-20.842 0.29566-16.785 4e-3 -20.416-0.0786-20.567-0.47057zm4.9378-8.4696c-0.10108-0.26342-0.13579-4.2082-0.0771-8.7661 0.0821-6.3818 0.21798-8.4211 0.59082-8.8697 0.43006-0.51744 1.6473-0.58255 10.891-0.58255h10.406l4.8962 4.6265 4.8962 4.6265v9.4442h-3.175v-7.7611h-7.7372l-0.10013-3.7924-0.10013-3.7924h-16.933l-0.0951 7.6729-0.0951 7.6729h-1.5917c-1.0152 0-1.6582-0.17347-1.7755-0.47894z" style="stroke-width:.35278"/>
 </g>
</svg>
